<?xml version="1.0" encoding="UTF-8" standalone="no"?>
<!DOCTYPE svg PUBLIC "-//W3C//DTD SVG 1.1//EN"
 "http://www.w3.org/Graphics/SVG/1.1/DTD/svg11.dtd">
<!-- Generated by graphviz version 2.36.0 (20140111.2315)
 -->
<!-- Title: GRAPH_0 Pages: 1 -->
<svg width="674pt" height="256pt"
 viewBox="0.00 0.00 674.00 256.00" xmlns="http://www.w3.org/2000/svg" xmlns:xlink="http://www.w3.org/1999/xlink">
<g id="graph0" class="graph" transform="scale(1 1) rotate(0) translate(4 252)">
<title>GRAPH_0</title>
<polygon fill="white" stroke="none" points="-4,4 -4,-252 670,-252 670,4 -4,4"/>
<g id="clust1" class="cluster"><title>cluster0</title>
<polygon fill="none" stroke="#dddddd" points="244,-128 244,-180 512,-180 512,-128 244,-128"/>
</g>
<g id="clust2" class="cluster"><title>cluster1</title>
<polygon fill="none" stroke="#dddddd" points="244,-188 244,-240 368,-240 368,-188 244,-188"/>
</g>
<g id="clust3" class="cluster"><title>cluster2</title>
<polygon fill="none" stroke="#dddddd" points="244,-8 244,-60 296,-60 296,-8 244,-8"/>
</g>
<g id="clust4" class="cluster"><title>cluster3</title>
<polygon fill="none" stroke="#dddddd" points="244,-68 244,-120 296,-120 296,-68 244,-68"/>
</g>
<!-- G -->
<g id="node1" class="node"><title>G</title>
<polygon fill="#cceedd" stroke="#222222" points="54,-113.488 54,-134.512 2.4869e-14,-142 3.55271e-15,-106 54,-113.488"/>
<text text-anchor="middle" x="27" y="-120.3" font-family="Helvetica,sans-Serif" font-size="14.00" fill="#444444">G</text>
</g>
<!-- a -->
<g id="node5" class="node"><title>a</title>
<ellipse fill="none" stroke="#222222" cx="108" cy="-124" rx="18" ry="18"/>
<text text-anchor="middle" x="108" y="-120.3" font-family="Helvetica,sans-Serif" font-size="14.00" fill="#444444">a</text>
</g>
<!-- G&#45;&gt;a -->
<g id="edge1" class="edge"><title>G&#45;&gt;a</title>
<path fill="none" stroke="#555555" d="M54.3059,-124C64.1525,-124 75.235,-124 84.6867,-124"/>
<polygon fill="#555555" stroke="#555555" points="84.7516,-125.75 89.7516,-124 84.7516,-122.25 84.7516,-125.75"/>
</g>
<!-- B -->
<g id="node2" class="node"><title>B</title>
<polygon fill="#eeddcc" stroke="#222222" points="162,-124 202.5,-106 202.5,-142 162,-124"/>
</g>
<!-- b -->
<g id="node6" class="node"><title>b</title>
<ellipse fill="none" stroke="#222222" cx="270" cy="-214" rx="18" ry="18"/>
<text text-anchor="middle" x="270" y="-210.3" font-family="Helvetica,sans-Serif" font-size="14.00" fill="#444444">b</text>
</g>
<!-- B&#45;&gt;b -->
<g id="edge3" class="edge"><title>B&#45;&gt;b</title>
<path fill="none" stroke="#555555" d="M202.693,-138.46C216.605,-154.309 238.918,-179.729 253.764,-196.643"/>
<polygon fill="#555555" stroke="#555555" points="252.755,-198.146 257.368,-200.749 255.385,-195.837 252.755,-198.146"/>
</g>
<!-- c -->
<g id="node7" class="node"><title>c</title>
<ellipse fill="none" stroke="#222222" cx="270" cy="-94" rx="18" ry="18"/>
<text text-anchor="middle" x="270" y="-90.3" font-family="Helvetica,sans-Serif" font-size="14.00" fill="#444444">c</text>
</g>
<!-- B&#45;&gt;c -->
<g id="edge4" class="edge"><title>B&#45;&gt;c</title>
<path fill="none" stroke="#555555" d="M202.693,-119.18C214.919,-114.537 233.633,-107.431 248.066,-101.95"/>
<polygon fill="#555555" stroke="#555555" points="248.728,-103.57 252.781,-100.159 247.485,-100.298 248.728,-103.57"/>
</g>
<!-- d -->
<g id="node8" class="node"><title>d</title>
<ellipse fill="none" stroke="#222222" cx="270" cy="-34" rx="18" ry="18"/>
<text text-anchor="middle" x="270" y="-30.3" font-family="Helvetica,sans-Serif" font-size="14.00" fill="#444444">d</text>
</g>
<!-- B&#45;&gt;d -->
<g id="edge5" class="edge"><title>B&#45;&gt;d</title>
<path fill="none" stroke="#555555" d="M202.693,-109.54C216.605,-93.6906 238.918,-68.2712 253.764,-51.357"/>
<polygon fill="#555555" stroke="#555555" points="255.385,-52.1633 257.368,-47.2511 252.755,-49.8544 255.385,-52.1633"/>
</g>
<!-- e -->
<g id="node9" class="node"><title>e</title>
<ellipse fill="none" stroke="#222222" cx="270" cy="-154" rx="18" ry="18"/>
<text text-anchor="middle" x="270" y="-150.3" font-family="Helvetica,sans-Serif" font-size="14.00" fill="#444444">e</text>
</g>
<!-- B&#45;&gt;e -->
<g id="edge6" class="edge"><title>B&#45;&gt;e</title>
<path fill="none" stroke="#555555" d="M202.693,-128.82C214.919,-133.463 233.633,-140.569 248.066,-146.05"/>
<polygon fill="#555555" stroke="#555555" points="247.485,-147.702 252.781,-147.841 248.728,-144.43 247.485,-147.702"/>
</g>
<!-- M -->
<g id="node3" class="node"><title>M</title>
<polygon fill="#eeddcc" stroke="#222222" points="594,-127 553.5,-145 553.5,-109 594,-127"/>
</g>
<!-- #9 -->
<g id="node4" class="node"><title>#9</title>
<ellipse fill="#ffffff" stroke="#ffffff" cx="648" cy="-127" rx="18" ry="18"/>
<text text-anchor="middle" x="648" y="-123.3" font-family="Helvetica,sans-Serif" font-size="14.00" fill="#444444"> </text>
</g>
<!-- M&#45;&gt;#9 -->
<g id="edge9" class="edge"><title>M&#45;&gt;#9</title>
<path fill="none" stroke="#555555" d="M594.306,-127C604.153,-127 615.235,-127 624.687,-127"/>
<polygon fill="#555555" stroke="#555555" points="624.752,-128.75 629.752,-127 624.752,-125.25 624.752,-128.75"/>
</g>
<!-- a&#45;&gt;B -->
<g id="edge2" class="edge"><title>a&#45;&gt;B</title>
<path fill="none" stroke="#555555" d="M126.142,-124C135.111,-124 146.375,-124 156.824,-124"/>
<polygon fill="#555555" stroke="#555555" points="156.874,-125.75 161.874,-124 156.874,-122.25 156.874,-125.75"/>
</g>
<!-- x -->
<g id="node13" class="node"><title>x</title>
<ellipse fill="none" stroke="#222222" cx="342" cy="-214" rx="18" ry="18"/>
<text text-anchor="middle" x="342" y="-210.3" font-family="Helvetica,sans-Serif" font-size="14.00" fill="#444444">x</text>
</g>
<!-- b&#45;&gt;x -->
<g id="edge13" class="edge"><title>b&#45;&gt;x</title>
<path fill="none" stroke="#555555" d="M288.303,-214C297.543,-214 309.016,-214 318.895,-214"/>
<polygon fill="#555555" stroke="#555555" points="318.896,-215.75 323.896,-214 318.896,-212.25 318.896,-215.75"/>
</g>
<!-- c&#45;&gt;M -->
<g id="edge7" class="edge"><title>c&#45;&gt;M</title>
<path fill="none" stroke="#555555" d="M288.136,-95.9169C340.089,-101.729 495.503,-119.114 548.256,-125.015"/>
<polygon fill="#555555" stroke="#555555" points="548.155,-126.765 553.319,-125.581 548.545,-123.286 548.155,-126.765"/>
</g>
<!-- d&#45;&gt;M -->
<g id="edge8" class="edge"><title>d&#45;&gt;M</title>
<path fill="none" stroke="#555555" d="M287.281,-39.1326C338.416,-55.253 495.541,-104.788 548.423,-121.459"/>
<polygon fill="#555555" stroke="#555555" points="547.913,-123.133 553.208,-122.967 548.966,-119.795 547.913,-123.133"/>
</g>
<!-- f -->
<g id="node10" class="node"><title>f</title>
<ellipse fill="none" stroke="#222222" cx="342" cy="-154" rx="18" ry="18"/>
<text text-anchor="middle" x="342" y="-150.3" font-family="Helvetica,sans-Serif" font-size="14.00" fill="#444444">f</text>
</g>
<!-- e&#45;&gt;f -->
<g id="edge10" class="edge"><title>e&#45;&gt;f</title>
<path fill="none" stroke="#555555" d="M288.303,-154C297.543,-154 309.016,-154 318.895,-154"/>
<polygon fill="#555555" stroke="#555555" points="318.896,-155.75 323.896,-154 318.896,-152.25 318.896,-155.75"/>
</g>
<!-- g -->
<g id="node11" class="node"><title>g</title>
<ellipse fill="none" stroke="#222222" cx="414" cy="-154" rx="18" ry="18"/>
<text text-anchor="middle" x="414" y="-150.3" font-family="Helvetica,sans-Serif" font-size="14.00" fill="#444444">g</text>
</g>
<!-- f&#45;&gt;g -->
<g id="edge11" class="edge"><title>f&#45;&gt;g</title>
<path fill="none" stroke="#555555" d="M360.303,-154C369.543,-154 381.016,-154 390.895,-154"/>
<polygon fill="#555555" stroke="#555555" points="390.896,-155.75 395.896,-154 390.896,-152.25 390.896,-155.75"/>
</g>
<!-- h -->
<g id="node12" class="node"><title>h</title>
<ellipse fill="none" stroke="#222222" cx="486" cy="-154" rx="18" ry="18"/>
<text text-anchor="middle" x="486" y="-150.3" font-family="Helvetica,sans-Serif" font-size="14.00" fill="#444444">h</text>
</g>
<!-- g&#45;&gt;h -->
<g id="edge12" class="edge"><title>g&#45;&gt;h</title>
<path fill="none" stroke="#555555" d="M432.303,-154C441.543,-154 453.016,-154 462.895,-154"/>
<polygon fill="#555555" stroke="#555555" points="462.896,-155.75 467.896,-154 462.896,-152.25 462.896,-155.75"/>
</g>
<!-- h&#45;&gt;M -->
<g id="edge15" class="edge"><title>h&#45;&gt;M</title>
<path fill="none" stroke="#555555" d="M503.369,-148.406C516.455,-143.933 534.772,-137.673 548.218,-133.078"/>
<polygon fill="#555555" stroke="#555555" points="549.126,-134.617 553.291,-131.344 547.994,-131.305 549.126,-134.617"/>
</g>
<!-- x&#45;&gt;M -->
<g id="edge14" class="edge"><title>x&#45;&gt;M</title>
<path fill="none" stroke="#555555" d="M360.211,-214.4C392.115,-214.423 461.759,-211.06 512,-184 527.527,-175.637 541.152,-161.169 550.831,-148.903"/>
<polygon fill="#555555" stroke="#555555" points="552.296,-149.869 553.96,-144.839 549.523,-147.733 552.296,-149.869"/>
</g>
</g>
</svg>
