<?xml version="1.0" encoding="UTF-8" standalone="no"?>
<!DOCTYPE svg PUBLIC "-//W3C//DTD SVG 1.1//EN"
 "http://www.w3.org/Graphics/SVG/1.1/DTD/svg11.dtd">
<!-- Generated by graphviz version 2.36.0 (20140111.2315)
 -->
<!-- Title: G Pages: 1 -->
<svg width="348pt" height="209pt"
 viewBox="0.00 0.00 348.00 209.00" xmlns="http://www.w3.org/2000/svg" xmlns:xlink="http://www.w3.org/1999/xlink">
<g id="graph0" class="graph" transform="scale(1 1) rotate(0) translate(4 205)">
<title>G</title>
<polygon fill="white" stroke="none" points="-4,4 -4,-205 344,-205 344,4 -4,4"/>
<!-- sources -->
<g id="node1" class="node"><title>sources</title>
<polygon fill="none" stroke="black" points="0,-54.5 0,-123.5 94,-123.5 94,-54.5 0,-54.5"/>
<text text-anchor="middle" x="29.5" y="-85.3" font-family="Times,serif" font-size="14.00">sources</text>
<polyline fill="none" stroke="black" points="59,-54.5 59,-123.5 "/>
<text text-anchor="middle" x="76.5" y="-108.3" font-family="Times,serif" font-size="14.00">bid</text>
<polyline fill="none" stroke="black" points="59,-100.5 94,-100.5 "/>
<text text-anchor="middle" x="76.5" y="-85.3" font-family="Times,serif" font-size="14.00">ask</text>
<polyline fill="none" stroke="black" points="59,-77.5 94,-77.5 "/>
<text text-anchor="middle" x="76.5" y="-62.3" font-family="Times,serif" font-size="14.00">ts</text>
</g>
<!-- fd1 -->
<g id="node2" class="node"><title>fd1</title>
<polygon fill="none" stroke="black" points="130,-165 130,-201 234,-201 234,-165 130,-165"/>
<text text-anchor="middle" x="142" y="-179.3" font-family="Times,serif" font-size="14.00">x</text>
<polyline fill="none" stroke="black" points="154,-165 154,-201 "/>
<text text-anchor="middle" x="182" y="-179.3" font-family="Times,serif" font-size="14.00">fd(1,1)</text>
<polyline fill="none" stroke="black" points="210,-165 210,-201 "/>
<text text-anchor="middle" x="222" y="-179.3" font-family="Times,serif" font-size="14.00">y</text>
</g>
<!-- sources&#45;&gt;fd1 -->
<g id="edge1" class="edge"><title>sources:bid&#45;&gt;fd1:x</title>
<path fill="none" stroke="black" d="M94,-112C118.925,-112 111.91,-137.854 130,-155 131.285,-156.218 132.734,-156.954 134.17,-157.502"/>
<polygon fill="black" stroke="black" points="132.069,-160.308 142,-164 136.539,-154.921 132.069,-160.308"/>
</g>
<!-- fd2 -->
<g id="node3" class="node"><title>fd2</title>
<polygon fill="none" stroke="black" points="130,-55 130,-91 234,-91 234,-55 130,-55"/>
<text text-anchor="middle" x="142" y="-69.3" font-family="Times,serif" font-size="14.00">x</text>
<polyline fill="none" stroke="black" points="154,-55 154,-91 "/>
<text text-anchor="middle" x="182" y="-69.3" font-family="Times,serif" font-size="14.00">fd(1,1)</text>
<polyline fill="none" stroke="black" points="210,-55 210,-91 "/>
<text text-anchor="middle" x="222" y="-69.3" font-family="Times,serif" font-size="14.00">y</text>
</g>
<!-- sources&#45;&gt;fd2 -->
<g id="edge2" class="edge"><title>sources:ask&#45;&gt;fd2:x</title>
<path fill="none" stroke="black" d="M94,-89C107.405,-89 111.123,-79.6211 119.987,-75.2247"/>
<polygon fill="black" stroke="black" points="120.997,-78.5857 130,-73 119.479,-71.7523 120.997,-78.5857"/>
</g>
<!-- epmf3 -->
<g id="node6" class="node"><title>epmf3</title>
<polygon fill="none" stroke="black" points="147,-110 147,-146 217,-146 217,-110 147,-110"/>
<text text-anchor="middle" x="159" y="-124.3" font-family="Times,serif" font-size="14.00">x</text>
<polyline fill="none" stroke="black" points="171,-110 171,-146 "/>
<text text-anchor="middle" x="194" y="-124.3" font-family="Times,serif" font-size="14.00">epmf</text>
</g>
<!-- sources&#45;&gt;epmf3 -->
<g id="edge5" class="edge"><title>sources:bid&#45;&gt;epmf3:x</title>
<path fill="none" stroke="black" d="M94,-112C114.402,-112 120.181,-123.391 136.013,-126.95"/>
<polygon fill="black" stroke="black" points="135.689,-130.435 146,-128 136.421,-123.474 135.689,-130.435"/>
</g>
<!-- epmf4 -->
<g id="node7" class="node"><title>epmf4</title>
<polygon fill="none" stroke="black" points="147,-0 147,-36 217,-36 217,-0 147,-0"/>
<text text-anchor="middle" x="159" y="-14.3" font-family="Times,serif" font-size="14.00">x</text>
<polyline fill="none" stroke="black" points="171,-0 171,-36 "/>
<text text-anchor="middle" x="194" y="-14.3" font-family="Times,serif" font-size="14.00">epmf</text>
</g>
<!-- sources&#45;&gt;epmf4 -->
<g id="edge6" class="edge"><title>sources:ask&#45;&gt;epmf4:x</title>
<path fill="none" stroke="black" d="M94,-89C129.141,-89 111.54,-31.6895 135.968,-20.0483"/>
<polygon fill="black" stroke="black" points="136.902,-23.4298 146,-18 135.502,-16.5713 136.902,-23.4298"/>
</g>
<!-- epmf1 -->
<g id="node4" class="node"><title>epmf1</title>
<polygon fill="none" stroke="black" points="270,-165 270,-201 340,-201 340,-165 270,-165"/>
<text text-anchor="middle" x="282" y="-179.3" font-family="Times,serif" font-size="14.00">x</text>
<polyline fill="none" stroke="black" points="294,-165 294,-201 "/>
<text text-anchor="middle" x="317" y="-179.3" font-family="Times,serif" font-size="14.00">epmf</text>
</g>
<!-- fd1&#45;&gt;epmf1 -->
<g id="edge3" class="edge"><title>fd1:y&#45;&gt;epmf1:x</title>
<path fill="none" stroke="black" d="M234,-183C246,-183 251.25,-183 259.875,-183"/>
<polygon fill="black" stroke="black" points="260,-186.5 270,-183 260,-179.5 260,-186.5"/>
</g>
<!-- epmf2 -->
<g id="node5" class="node"><title>epmf2</title>
<polygon fill="none" stroke="black" points="270,-55 270,-91 340,-91 340,-55 270,-55"/>
<text text-anchor="middle" x="282" y="-69.3" font-family="Times,serif" font-size="14.00">x</text>
<polyline fill="none" stroke="black" points="294,-55 294,-91 "/>
<text text-anchor="middle" x="317" y="-69.3" font-family="Times,serif" font-size="14.00">epmf</text>
</g>
<!-- fd2&#45;&gt;epmf2 -->
<g id="edge4" class="edge"><title>fd2:y&#45;&gt;epmf2:x</title>
<path fill="none" stroke="black" d="M234,-73C246,-73 251.25,-73 259.875,-73"/>
<polygon fill="black" stroke="black" points="260,-76.5001 270,-73 260,-69.5001 260,-76.5001"/>
</g>
</g>
</svg>
